<svg xmlns="http://www.w3.org/2000/svg" version="1.1" xmlns:xlink="http://www.w3.org/1999/xlink" xmlns:svgjs="http://svgjs.dev/svgjs" width="2000" height="282" viewBox="0 0 2000 282"><g transform="matrix(1,0,0,1,-1.2121212121212466,-0.0386513095996861)"><svg viewBox="0 0 396 56" data-background-color="#1c2936" preserveAspectRatio="xMidYMid meet" height="282" width="2000" xmlns="http://www.w3.org/2000/svg" xmlns:xlink="http://www.w3.org/1999/xlink"><g id="tight-bounds" transform="matrix(1,0,0,1,0.2400000000000091,0.007675437367311133)"><svg viewBox="0 0 395.52 55.98464912526536" height="55.98464912526536" width="395.52"><g><svg viewBox="0 0 446.95713054076214 63.26541799999999" height="55.98464912526536" width="395.52"><g><svg viewBox="0 0 446.95713054076214 63.26541799999999" height="63.26541799999999" width="446.95713054076214"><g id="textblocktransform"><svg viewBox="0 0 446.95713054076214 63.26541799999999" height="63.26541799999999" width="446.95713054076214" id="textblock"><g><svg viewBox="0 0 446.95713054076214 63.26541799999999" height="63.26541799999999" width="446.95713054076214"><g><svg><g></g><g></g></svg></g><g><svg><g></g><g><svg></svg></g></svg></g><g id="text-0"><svg viewBox="0 0 446.95713054076214 63.26541799999999" height="63.26541799999999" width="446.95713054076214"><g><svg xmlns="http://www.w3.org/2000/svg" xmlns:xlink="http://www.w3.org/1999/xlink" version="1.1" x="0" y="3.552713678800501e-15" viewBox="3.187999999999997 11.920000000000009 94.06099999999999 76.36999999999998" enable-background="new 0 0 100 100" xml:space="preserve" height="63.26541799999998" width="77.92076054076207" class="icon-cg-0" data-fill-palette-color="accent" id="cg-0"><g fill="#68baca" data-fill-palette-color="accent"><path fill="#68baca" d="M67.022 66.238c4.007-0.975 9.697-2.172 15.654-2.81 0.27-1.359 0.416-2.747 0.416-4.161 0-0.529-0.022-1.056-0.061-1.578v-7.557C80.241 56.723 74.527 62.363 67.022 66.238z" data-fill-palette-color="accent"></path><path fill="#68baca" d="M43.141 69.965c22.065 0 39.952-12.994 39.952-29.023 0-16.029-17.887-29.022-39.952-29.022-22.065 0-39.952 12.994-39.952 29.022C3.188 56.971 21.076 69.965 43.141 69.965zM9.82 40.94c0-4.666 5.207-8.448 11.63-8.448 6.423 0 11.63 3.783 11.63 8.448 0 4.666-5.207 8.449-11.63 8.449C15.026 49.389 9.82 45.606 9.82 40.94zM76.462 40.94c0 4.666-5.209 8.449-11.632 8.449S53.2 45.606 53.2 40.94c0-4.666 5.207-8.448 11.63-8.448S76.462 36.275 76.462 40.94zM31.509 56.698c0-4.665 5.208-8.449 11.629-8.449 6.424 0 11.631 3.784 11.631 8.449 0 4.667-5.208 8.448-11.631 8.448C36.716 65.146 31.509 61.365 31.509 56.698zM40.176 40.941c0-1.189 1.328-2.153 2.965-2.153s2.965 0.964 2.965 2.153c0 1.189-1.328 2.154-2.965 2.154S40.176 42.131 40.176 40.941zM54.77 25.186c0 4.666-5.208 8.449-11.631 8.449-6.422 0-11.629-3.783-11.629-8.449 0-4.667 5.208-8.449 11.629-8.449C49.562 16.736 54.77 20.519 54.77 25.186z" data-fill-palette-color="accent"></path><path fill="#68baca" d="M85.484 64.411c-10.738 0.977-24.245 4.428-30.171 6.047-3.854 0.868-7.939 1.339-12.173 1.339-18.725 0-34.613-9.143-39.907-21.701v7.876c-0.026 0.43-0.045 0.861-0.045 1.295 0 16.03 17.887 29.023 39.952 29.023 7.255 0 14.053-1.412 19.916-3.867 22.008-5.756 34.193-3.097 34.193-3.097V64.955C94.481 64.033 90.256 63.978 85.484 64.411z" data-fill-palette-color="accent"></path></g></svg></g><g transform="matrix(1,0,0,1,90.16386054076207,0)"><svg width="356.79327000000006" viewBox="0.8 -31.55 180.73 32.05" height="63.26541799999999" data-palette-color="#e8eef7"><path d="M0.8-21.7Q0.8-26.15 3.4-28.85 6-31.55 10.53-31.55 15.05-31.55 19.8-30.65L19.8-30.65 18.8-22.65Q13.85-23.8 12-23.8L12-23.8Q9.65-23.8 9.65-21.9L9.65-21.9Q9.65-21.15 10.78-20.45 11.9-19.75 13.5-18.98 15.1-18.2 16.7-17.13 18.3-16.05 19.43-14.05 20.55-12.05 20.55-9.45L20.55-9.45Q20.55-4.7 18-2.1 15.45 0.5 10.78 0.5 6.1 0.5 1.65-0.95L1.65-0.95 2.2-8.4Q7.55-6.85 9.65-6.85 11.75-6.85 11.75-8.7L11.75-8.7Q11.75-9.65 10.63-10.45 9.5-11.25 7.9-12.05 6.3-12.85 4.67-13.9 3.05-14.95 1.93-16.95 0.8-18.95 0.8-21.7L0.8-21.7ZM32.55-31.05L32.55 0 24.05 0 24.05-31.05 32.55-31.05ZM56-31.05L55.5-23.5 49.7-23.5 49.7 0 41.15 0 41.15-23.5 35-23.5 35.5-31.05 56-31.05ZM75.24-7L74.74 0 57.94 0 57.94-31.05 75.24-31.05 74.74-23.4 66.49-23.4 66.49-18.75 73.64-18.75 73.64-12.15 66.49-12.15 66.49-7 75.24-7ZM100.79-31.05L100.79 0 92.59 0 86.14-14.45 85.74-14.45 85.74 0 78.14 0 78.14-31.05 86.59-31.05 92.74-16.15 93.14-16.15 93.14-31.05 100.79-31.05ZM121.79-31.05L127.49 0 119.14 0 118.19-4.9 112.29-4.9 111.34 0 103.39 0 109.09-31.05 121.79-31.05ZM113.39-10.75L117.24-10.75 115.49-21.85 115.14-21.85 113.39-10.75ZM159.09-31.05L160.14 0 152.29 0 152.29-16.2 151.84-16.2 148.89 0 140.84 0 138.04-16.2 137.54-16.2 137.54 0 129.79 0 130.84-31.05 142.09-31.05 144.89-14.25 145.29-14.25 147.99-31.05 159.09-31.05ZM181.53-7L181.03 0 164.23 0 164.23-31.05 181.53-31.05 181.03-23.4 172.78-23.4 172.78-18.75 179.93-18.75 179.93-12.15 172.78-12.15 172.78-7 181.53-7Z" opacity="1" transform="matrix(1,0,0,1,0,0)" fill="#e8eef7" class="wordmark-text-0" data-fill-palette-color="primary"></path></svg></g></svg></g></svg></g></svg></g></svg></g><g></g></svg></g><defs></defs></svg><rect width="395.52" height="55.98464912526536" fill="none" stroke="none" visibility="hidden"></rect></g></svg></g></svg>