<?xml version="1.0" encoding="utf-8"?>
<!-- Svg Vector Icons : http://www.onlinewebfonts.com/icon -->
<!DOCTYPE svg PUBLIC "-//W3C//DTD SVG 1.1//EN" "http://www.w3.org/Graphics/SVG/1.1/DTD/svg11.dtd">
<svg version="1.1" xmlns="http://www.w3.org/2000/svg" xmlns:xlink="http://www.w3.org/1999/xlink" x="0px" y="0px" viewBox="0 0 256 256" enable-background="new 0 0 256 256" xml:space="preserve">
<metadata> Svg Vector Icons : http://www.onlinewebfonts.com/icon </metadata>
<g><g><path fill="#000000" d="M130.3,9.2h-3.2C62.3,9.2,10,61.5,10,126.4v3.2c0,64.9,52.3,117.2,117.2,117.2h1.6c64.9,0,117.2-49.5,117.2-117.6l0-1.2C247.5,63.1,195.2,9.2,130.3,9.2z M130.3,230.9h-3.2c-31.7,0-58.6-14.3-77.6-36.4c26.9-19,77.6-19,79.2-19c61.8,0,77.6,15.8,79.2,17.4C188.9,216.7,160.4,230.9,130.3,230.9z M230.1,129.6c0,19-3.2,36.4-12.7,52.3c-9.5-7.9-31.7-20.6-88.7-20.6c-3.2,0-57,0-87.1,22.2c-9.5-15.8-15.8-33.2-15.8-53.8v-3.2C25.8,71,71.7,25.1,127.2,25.1h1.6C184.1,25.1,230,71,230,126.4L230.1,129.6L230.1,129.6z"/><path fill="#000000" d="M128.7,45.7c-28.5,0-52.3,23.7-52.3,52.3s23.8,52.2,52.3,52.2c28.5,0,52.3-23.7,52.3-52.2C181,69.5,157.2,45.7,128.7,45.7z M128.7,134.3c-20.6,0-36.4-15.8-36.4-36.4c0-20.6,15.8-36.4,36.4-36.4c20.6,0,36.4,15.8,36.4,36.4C165.1,118.5,149.3,134.3,128.7,134.3z"/></g></g>
</svg>