<?xml version="1.0" encoding="utf-8"?>
<!-- Svg Vector Icons : http://www.onlinewebfonts.com/icon -->
<!DOCTYPE svg PUBLIC "-//W3C//DTD SVG 1.1//EN" "http://www.w3.org/Graphics/SVG/1.1/DTD/svg11.dtd">
<svg version="1.1" xmlns="http://www.w3.org/2000/svg" xmlns:xlink="http://www.w3.org/1999/xlink" x="0px" y="0px" viewBox="0 0 256 256" enable-background="new 0 0 256 256" xml:space="preserve">
<metadata> Svg Vector Icons : http://www.onlinewebfonts.com/icon </metadata>
<g><g><g><path fill="#000000" d="M24.2,20.7c-5.3,1.5-9.8,5.2-12.1,10.2C6.4,43.1,12.9,56.6,25.6,59c3.4,0.6,200.9,0.6,204.3,0c5.8-1.1,11.5-5.3,14-10.3c5.5-11.3-0.6-24.7-12.9-27.9C227.8,19.9,27.4,19.9,24.2,20.7z"/><path fill="#000000" d="M23.2,109.2c-5.5,1.9-8.9,5-11.3,10.2c-5.5,11.9,1.1,25.3,13.7,27.7c3.4,0.6,200.9,0.6,204.3,0c10.6-2,17.6-11.9,15.8-22.2c-1.4-7.9-7-14-14.6-16c-1.9-0.5-20.6-0.6-103.5-0.6l-101.2,0L23.2,109.2z"/><path fill="#000000" d="M25.1,197.1c-3.4,0.6-7.6,3-9.9,5.5c-9,9.7-5.9,25.9,6.1,31.6l3.1,1.5l101.7,0.1c76.6,0.1,102.3,0,104.2-0.4c7.9-1.7,13.9-8,15.3-16.2c1.8-10.3-5.2-20.3-15.8-22.2C226.8,196.5,28.2,196.5,25.1,197.1z"/></g></g></g>
</svg>