<?xml version="1.0" encoding="utf-8"?>
<!-- Svg Vector Icons : http://www.onlinewebfonts.com/icon -->
<!DOCTYPE svg PUBLIC "-//W3C//DTD SVG 1.1//EN" "http://www.w3.org/Graphics/SVG/1.1/DTD/svg11.dtd">
<svg version="1.1" xmlns="http://www.w3.org/2000/svg" xmlns:xlink="http://www.w3.org/1999/xlink" x="0px" y="0px" viewBox="0 0 256 256" enable-background="new 0 0 256 256" xml:space="preserve">
<metadata> Svg Vector Icons : http://www.onlinewebfonts.com/icon </metadata>
<g><g><g><path fill="#000000" d="M141.5,10.5C117.7,13,94.9,25.2,79.4,43.7c-24.2,28.9-29,68.4-12.3,102.5l3,6.1l-27.7,27.8c-29.8,29.9-29.9,30-31.6,36.7c-3.3,12.7,5.2,26.1,18.3,28.8c5.7,1.1,12.8-0.3,17.9-3.6c1.2-0.8,14.5-13.8,29.6-28.8l27.3-27.2l6.1,3c47.3,23.3,103.8,3.8,126.8-43.7c18.7-38.8,8.7-85.4-24.3-113C192.6,15.7,167.1,7.9,141.5,10.5z M164.9,42.9c22.1,5.1,39.3,20.6,46.5,42c9.7,29.3-3.7,61.5-31.4,75.6c-8.2,4.2-19.2,6.8-28.4,6.8c-11.8,0-25-4-34.7-10.5c-4.1-2.8-5.3-3.8-10-8.4c-8.5-8.4-14.5-19.5-17.1-31.8c-1.3-5.9-1.3-18.7,0-24.6C92.6,79.6,98.3,69,107.2,60c10.1-10.1,23.1-16.4,37.6-18.3C148.6,41.3,160.8,41.9,164.9,42.9z"/></g></g></g>
</svg>